<svg width="24" height="25" viewBox="0 0 24 25" fill="none" xmlns="http://www.w3.org/2000/svg">
<path d="M15.8175 8.33496L15.8458 8.33789L15.8741 8.33887C16.3051 8.35879 17.2772 8.48573 18.1115 9.19238C17.9713 9.32698 17.825 9.48146 17.6788 9.65527C17.0397 10.4153 16.398 11.5755 16.4103 13.1377V13.1396C16.4285 14.9738 17.2447 16.2263 18.0597 17.0029C18.3321 17.2625 18.607 17.4695 18.8536 17.6328C18.6547 18.1199 18.3503 18.7606 17.8868 19.4316L17.879 19.4434C17.4593 20.0705 17.089 20.5916 16.6925 20.9629C16.3132 21.318 15.9845 21.4647 15.6447 21.4697L15.6378 21.4707C15.2071 21.4803 14.943 21.3695 14.4796 21.1689C13.9861 20.9554 13.3429 20.6797 12.3702 20.6797C11.4063 20.6797 10.7597 20.9331 10.2462 21.1514C9.75036 21.3622 9.4825 21.4834 9.06067 21.5C8.79141 21.5099 8.46664 21.3832 8.04016 20.9805C7.61112 20.5753 7.20917 20.0157 6.78137 19.3994C6.01038 18.2853 5.31039 16.6667 5.01379 14.9785C4.71571 13.2817 4.8453 11.6428 5.56653 10.3887L5.5675 10.3867C6.27324 9.15372 7.52079 8.4035 8.83704 8.37988C9.26154 8.3736 9.72323 8.51993 10.2853 8.73926C10.5377 8.83778 10.848 8.96574 11.1222 9.05859C11.395 9.15095 11.7455 9.25 12.1105 9.25C12.4944 9.2499 12.8771 9.12585 13.1544 9.02637C13.4092 8.93496 13.8243 8.76657 14.0773 8.67188C14.7142 8.43349 15.2866 8.28016 15.8175 8.33496ZM14.796 3.85938C14.6696 4.23818 14.4771 4.60156 14.2355 4.91992L14.132 5.0498L14.1232 5.05957C13.8331 5.4169 13.4598 5.70534 13.0695 5.89062C13.2175 5.43763 13.4669 4.99878 13.7599 4.64941C14.0409 4.33316 14.4116 4.06049 14.796 3.85938Z" stroke="#2F2F2F" stroke-width="2"/>
</svg>
