<svg width="400" height="400" viewBox="0 0 400 400" fill="none" xmlns="http://www.w3.org/2000/svg">
<path d="M230.262 200.001C230.262 250.843 189.047 292.052 138.206 292.052C87.3646 292.052 46.1543 250.841 46.1543 200.001C46.1543 149.163 87.3656 107.949 138.206 107.949C189.045 107.949 230.262 149.165 230.262 200.001Z" fill="#D9222A"/>
<path d="M261.79 107.947C238.005 107.947 216.332 116.971 199.995 131.776C196.667 134.796 193.56 138.051 190.7 141.518H209.298C211.845 144.613 214.188 147.87 216.316 151.268H183.683C181.72 154.407 179.949 157.662 178.379 161.015H221.616C223.1 164.187 224.402 167.441 225.514 170.761H174.482C173.41 173.959 172.517 177.213 171.807 180.509H228.186C229.565 186.914 230.26 193.448 230.258 200.001C230.258 210.223 228.59 220.059 225.513 229.242H174.481C175.591 232.564 176.891 235.819 178.376 238.99H221.615C220.044 242.344 218.272 245.6 216.309 248.741H183.681C185.811 252.14 188.158 255.397 190.699 258.482H209.293C206.436 261.955 203.329 265.213 199.995 268.232C216.334 283.035 238.005 292.054 261.79 292.054C312.63 292.054 353.847 250.843 353.847 200.003C353.847 149.167 312.631 107.952 261.79 107.952" fill="#EE9F2D"/>
<path d="M94.9792 224.225H84.9838L90.712 188.334L77.9299 224.225H71.1187L70.2766 188.539L64.2597 224.225H54.9043L62.7187 177.537H77.0879L77.492 206.441L87.1864 177.537H102.708L94.9792 224.225Z" fill="white"/>
<path d="M332.062 180.309L329.847 193.8C327.114 190.204 324.178 187.601 320.302 187.601C315.259 187.601 310.67 191.424 307.665 197.05C303.482 196.182 299.154 194.71 299.154 194.71L299.152 194.744C299.49 191.599 299.624 189.68 299.594 189.029H290.415C289.165 200.781 286.943 212.685 285.206 224.452L284.748 227.003H294.744C296.094 218.236 297.129 210.956 297.889 205.182C301.304 202.097 303.013 199.404 306.464 199.584C304.936 203.279 304.041 207.535 304.041 211.9C304.041 221.394 308.844 227.657 316.11 227.657C319.772 227.657 322.581 226.394 325.323 223.467L324.855 226.997H334.308L341.919 180.309H332.062ZM319.564 218.228C316.162 218.228 314.445 215.71 314.445 210.742C314.445 203.279 317.661 197.986 322.195 197.986C325.628 197.986 327.487 200.603 327.487 205.426C327.488 212.954 324.221 218.228 319.564 218.228Z" fill="black"/>
<path d="M119.585 207.314C118.538 207.193 118.074 207.16 117.356 207.16C111.692 207.16 108.826 209.102 108.826 212.938C108.826 215.299 110.226 216.808 112.406 216.808C116.48 216.808 119.414 212.932 119.585 207.314ZM126.856 224.229H118.576L118.765 220.299C116.241 223.403 112.867 224.889 108.292 224.889C102.873 224.889 99.1621 220.658 99.1621 214.515C99.1621 205.268 105.619 199.878 116.709 199.878C117.842 199.878 119.294 199.98 120.78 200.171C121.089 198.918 121.17 198.382 121.17 197.705C121.17 195.188 119.431 194.254 114.762 194.254C109.871 194.198 105.842 195.419 104.183 195.957C104.288 195.329 105.568 187.425 105.568 187.425C110.547 185.959 113.835 185.41 117.527 185.41C126.111 185.41 130.657 189.265 130.649 196.54C130.664 198.499 130.339 200.905 129.837 204.066C128.972 209.566 127.109 221.361 126.856 224.229ZM260.897 178.797L259.261 188.934C255.696 187.141 253.107 186.41 250.334 186.41C242.872 186.41 237.642 193.619 237.642 203.901C237.642 210.989 241.158 215.276 246.966 215.276C249.428 215.276 252.144 214.511 255.455 212.877L253.702 223.518C250.017 224.523 247.642 224.889 244.868 224.889C234.111 224.889 227.406 217.153 227.406 204.73C227.406 188.038 236.667 176.371 249.913 176.371C254.275 176.372 259.432 178.222 260.897 178.797ZM277.022 207.314C275.975 207.193 275.513 207.16 274.793 207.16C269.13 207.16 266.263 209.102 266.263 212.938C266.263 215.299 267.662 216.808 269.844 216.808C273.914 216.808 276.85 212.932 277.022 207.314ZM284.293 224.229H276.011L276.201 220.299C273.675 223.403 270.303 224.889 265.729 224.889C260.312 224.889 256.599 220.658 256.599 214.515C256.599 205.268 263.058 199.878 274.143 199.878C275.278 199.878 276.729 199.98 278.215 200.171C278.524 198.918 278.607 198.382 278.607 197.705C278.607 195.188 276.867 194.254 272.199 194.254C267.31 194.198 263.277 195.419 261.62 195.957C261.724 195.329 263.006 187.425 263.006 187.425C267.985 185.959 271.271 185.41 274.963 185.41C283.549 185.41 288.093 189.265 288.083 196.54C288.1 198.499 287.778 200.905 287.273 204.066C286.41 209.566 284.543 221.361 284.293 224.229ZM171.272 223.653C168.535 224.515 166.403 224.889 164.093 224.889C158.984 224.889 156.195 221.952 156.195 216.547C156.125 214.864 156.932 210.454 157.567 206.425C158.142 202.873 161.899 180.511 161.899 180.511H171.83L170.672 186.26H175.77L174.413 195.382H169.298C168.144 202.609 166.496 211.597 166.48 212.792C166.48 214.756 167.527 215.604 169.901 215.604C171.039 215.604 171.92 215.493 172.595 215.249L171.272 223.653ZM201.73 223.35C198.32 224.393 195.022 224.895 191.535 224.889C180.415 224.878 174.619 219.07 174.619 207.949C174.619 194.963 181.993 185.41 192.003 185.41C200.193 185.41 205.424 190.758 205.424 199.154C205.424 201.94 205.065 204.658 204.202 208.493H184.42C183.75 214.001 187.276 216.299 193.054 216.299C196.608 216.299 199.818 215.563 203.381 213.901L201.73 223.35ZM196.144 200.831C196.204 200.042 197.2 194.053 191.522 194.053C188.36 194.053 186.097 196.472 185.176 200.831H196.144ZM132.852 198.265C132.852 203.068 135.181 206.376 140.463 208.868C144.51 210.769 145.136 211.335 145.136 213.057C145.136 215.425 143.35 216.493 139.399 216.493C136.416 216.493 133.643 216.028 130.442 214.996C130.442 214.996 129.132 223.365 129.072 223.765C131.339 224.261 133.367 224.714 139.469 224.889C150.016 224.889 154.884 220.874 154.884 212.198C154.884 206.978 152.848 203.916 147.839 201.615C143.651 199.688 143.166 199.265 143.166 197.489C143.166 195.438 144.83 194.382 148.059 194.382C150.019 194.382 152.698 194.598 155.241 194.959L156.662 186.149C154.076 185.739 150.153 185.41 147.869 185.41C136.687 185.41 132.82 191.245 132.852 198.265ZM337.185 224.229H327.73L328.201 220.694C325.459 223.625 322.649 224.889 318.987 224.889C311.721 224.889 306.92 218.625 306.92 209.132C306.92 196.501 314.367 185.854 323.181 185.854C327.057 185.854 329.991 187.437 332.722 191.031L334.94 177.54H344.796L337.185 224.229ZM322.444 215.455C327.098 215.455 330.367 210.181 330.367 202.658C330.367 197.835 328.506 195.218 325.072 195.218C320.54 195.218 317.321 200.509 317.321 207.974C317.32 212.941 319.042 215.455 322.444 215.455ZM293.294 186.26C292.043 198.013 289.821 209.917 288.083 221.677L287.626 224.229H297.621C301.196 201.011 302.061 196.476 307.666 197.044C308.56 192.293 310.221 188.13 311.461 186.03C307.274 185.158 304.937 187.523 301.877 192.017C302.119 190.075 302.561 188.188 302.473 186.26H293.294ZM211.027 186.26C209.773 198.013 207.55 209.917 205.813 221.677L205.359 224.229H215.359C218.929 201.011 219.792 196.476 225.394 197.044C226.291 192.293 227.954 188.13 229.189 186.03C225.007 185.158 222.668 187.523 219.61 192.017C219.851 190.075 220.29 188.188 220.206 186.26H211.027ZM341.576 221.256C341.576 219.608 342.907 218.282 344.548 218.282C346.188 218.28 347.519 219.609 347.52 221.249V221.256C347.52 222.897 346.189 224.228 344.548 224.229C342.907 224.228 341.577 222.897 341.576 221.256ZM344.548 223.515C345.795 223.515 346.806 222.504 346.806 221.258V221.257C346.808 220.009 345.797 218.997 344.55 218.996H344.548C343.3 218.997 342.288 220.009 342.287 221.257C342.289 222.504 343.301 223.515 344.548 223.515ZM344.146 222.556H343.537V219.949H344.642C344.87 219.949 345.107 219.953 345.306 220.079C345.52 220.224 345.642 220.472 345.642 220.732C345.642 221.027 345.468 221.303 345.186 221.408L345.669 222.554H344.992L344.592 221.524H344.146V222.554V222.556ZM344.146 221.079H344.482C344.607 221.079 344.745 221.088 344.855 221.028C344.955 220.963 345.007 220.842 345.007 220.726C345.002 220.619 344.948 220.519 344.86 220.458C344.755 220.398 344.582 220.414 344.468 220.414H344.146L344.146 221.079Z" fill="white"/>
</svg>
