<svg width="24" height="25" viewBox="0 0 24 25" fill="none" xmlns="http://www.w3.org/2000/svg">
<path d="M3.75 15.125C3.75 11.675 5.475 8.075 7.5 8.075C8.625 8.075 9.525 8.75 10.95 10.775C9.6 12.875 8.775 14.15 8.775 14.15C6.975 17 6.375 17.6 5.4 17.6C4.425 17.675 3.75 16.775 3.75 15.125ZM15.525 13.85L14.25 11.75C13.95 11.225 13.575 10.7 13.275 10.25C14.4 8.525 15.3 7.625 16.425 7.625C18.675 7.625 20.475 11 20.475 15.2C20.475 16.775 19.95 17.675 18.9 17.675C17.85 17.675 17.475 17 15.525 13.85ZM12.3 8.75C10.65 6.575 9.225 5.75 7.575 5.75C4.125 5.75 1.5 10.325 1.5 15.125C1.5 18.125 2.925 20 5.325 20C7.05 20 8.25 19.175 10.5 15.275C10.5 15.275 11.4 13.625 12.075 12.5C12.3 12.875 12.525 13.25 12.75 13.7L13.8 15.5C15.825 18.95 16.95 20.075 18.975 20.075C21.3 20.075 22.575 18.125 22.575 15.05C22.5 9.95 19.8 5.75 16.575 5.75C14.85 5.75 13.5 7.1 12.3 8.75Z" fill="#2F2F2F"/>
</svg>
