<svg width="400" height="400" viewBox="0 0 400 400" fill="none" xmlns="http://www.w3.org/2000/svg">
<path d="M150.359 250.632L167.467 150.242H194.831L177.71 250.632H150.359ZM276.569 152.406C271.148 150.372 262.653 148.189 252.045 148.189C225.006 148.189 205.96 161.805 205.799 181.319C205.645 195.745 219.396 203.792 229.774 208.594C240.426 213.515 244.006 216.653 243.956 221.047C243.888 227.776 235.45 230.85 227.585 230.85C216.633 230.85 210.815 229.328 201.828 225.58L198.302 223.985L194.461 246.459C200.853 249.261 212.671 251.688 224.942 251.814C253.706 251.814 272.378 238.355 272.592 217.516C272.694 206.096 265.404 197.405 249.617 190.24C240.053 185.596 234.195 182.497 234.257 177.795C234.257 173.622 239.215 169.159 249.927 169.159C258.876 169.021 265.358 170.972 270.408 173.005L272.86 174.164L276.569 152.406ZM346.984 150.24H325.84C319.289 150.24 314.387 152.028 311.511 158.565L270.873 250.565H299.607C299.607 250.565 304.304 238.195 305.367 235.479C308.508 235.479 336.421 235.522 340.412 235.522C341.23 239.037 343.74 250.565 343.74 250.565H369.132L346.984 150.237V150.24ZM313.437 215.066C315.699 209.282 324.339 187.003 324.339 187.003C324.177 187.27 326.585 181.19 327.967 177.421L329.816 186.077C329.816 186.077 335.056 210.041 336.151 215.066H313.437ZM127.129 150.24L100.339 218.702L97.4843 204.789C92.4971 188.752 76.9587 171.376 59.5879 162.677L84.0833 250.472L113.035 250.439L156.114 150.239H127.129" fill="white"/>
<path d="M75.3439 150.236H31.2203L30.8711 152.325C65.1983 160.635 87.9121 180.716 97.3429 204.843L87.748 158.71C86.0916 152.353 81.288 150.456 75.3449 150.234" fill="#F2AE14"/>
</svg>
